<svg width="1135" height="370" fill="none" version="1.1" viewBox="0 0 1135 370" xmlns="http://www.w3.org/2000/svg">
	<path d="m1.1393 69.348c.7443 1.6821 1.519 3.3946 2.2329 5.0768 2.5519 5.7183 5.1139 11.422 7.6859 17.11 1.6253 3.5916 3.281 7.1681 4.8911 10.76 2.2582 4.991 4.5012 9.982 6.7291 14.973l4.5569 10.153c2.2936 5.077 4.5569 10.154 6.8505 15.155.1671.379.3798.758.638 1.242l4.7695-6.334c3.2506-4.44 6.486-8.881 9.7518-13.291.4912-.883 1.1221-1.681 1.8684-2.364.0122-.125.0429-.248.0911-.364l6.3645-8.683c0-.425-.3494-.576-.638-.803l-9.9189-7.669c-4.9366-3.834-9.8429-7.6831-14.78-11.502l-12.592-9.699-17.347-13.397-.18228-.1819c-.06999-.0455-.12658-.1088-.16396-.1834-.03737-.0746-.05417-.1577-.04869-.2409h-.37975c-.03263.073-.08599.1349-.15347.178-.06749.0431-.14615.0655-.22627.0645z" fill="white" stroke="#272C3E" stroke-miterlimit="10"/>
	<path d="m72.151 107.51 14.309-5.486 12.486-4.7279c-1.1696-.3789-2.0962-.7123-3.0379-.9851l-12-3.4855-13.853-4.016-11.514-3.425-13.959-4.0614c-4.1771-1.2275-8.3543-2.4854-12.547-3.6977l-19.109-5.5618c-3.5999-1.0457-7.1847-2.1216-10.769-3.1825-.1519 0-.31899 0-.47088-.0757l.22784.3485 12.03 6.5014 8.2936 4.5463 26.719 14.579 16.04 8.7746 7.1543 3.955z" fill="white" stroke="#272C3E" stroke-miterlimit="10"/>
	<path d="m72.151 108.51-7.1544-3.955-16.04-8.775-10.526-5.7436-16.207-8.8654-8.2936-4.5464-12.03-6.4862c-.00549.0832.01132.1663.04869.2409.03738.0746.09396.1379.16396.1834l.18228.1819 17.286 13.366 12.592 9.6989c4.9367 3.819 9.8429 7.6681 14.78 11.502l9.9189 7.669c.2886.227.6379.378.6379.803.1975.121.2127.318.2431.515.4405 2.849.9113 5.698 1.3518 8.547.5367 3.274 1.0431 6.542 1.519 9.805 1.7316-3.197 3.1139-6.577 4.7392-9.835.5316-1.061.9569-2.182 1.519-3.258 1.7518-3.688 3.5088-7.371 5.2708-11.048z" fill="white" stroke="#272C3E" stroke-miterlimit="10"/>
	<path d="m458.3 136.92c0 35.916-14.301 70.361-39.756 95.758-25.455 25.396-59.98 39.664-95.979 39.664-180.04-7.138-180-263.74 0-270.83 35.999 0 70.524 14.268 95.979 39.664s39.756 59.842 39.756 95.758v-.015z" stroke="white" stroke-dasharray="1.99 3.98" stroke-miterlimit="10"/>
	<path d="m246.15 152.49 40.1-53.042c1.991-2.5629 3.616-5.3883 4.831-8.3957 1.069-2.5622 1.646-5.3023 1.701-8.0774v-.1515c.103-1.6649-.16-3.3321-.771-4.8847-.612-1.5525-1.557-2.9526-2.768-4.102-2.844-2.283-6.443-3.4186-10.086-3.1825-1.868-.0858-3.733.2116-5.481.8737s-3.341 1.6748-4.681 2.9756c-2.799 3.0118-4.458 6.9021-4.694 11.002h-19.594c.535-6.2768 2.443-12.36 5.589-17.822 2.815-4.7726 6.893-8.6791 11.788-11.29 5.223-2.6801 11.034-4.0187 16.906-3.8948 6.226-.1555 12.409 1.0659 18.106 3.5765 4.786 2.1761 8.782 5.7755 11.438 10.305 2.758 4.9836 4.123 10.616 3.949 16.306-.004 4.8864-.889 9.7321-2.613 14.306-1.79 4.8267-4.272 9.3697-7.367 13.488l-31.169 40.66h41.787v18.185h-66.971v-16.836z" fill="white"/>
	<path d="m340.92 161.87c-5.773-5.779-8.659-13.862-8.659-24.248v-52.511c0-10.396 2.897-18.478 8.689-24.247s14.192-8.6432 25.2-8.623c11.058 0 19.468 2.8642 25.23 8.5927s8.648 13.811 8.658 24.247v52.587c0 10.396-2.896 18.478-8.689 24.247-5.792 5.769-14.192 8.648-25.199 8.638-11.059 0-19.469-2.894-25.23-8.683zm36.455-14.034c2.4-3.03 3.585-7.304 3.585-12.926v-47.01c0-5.6224-1.185-9.9415-3.585-12.927-2.4-2.9855-6.076-4.5464-11.241-4.5464-5.164 0-8.855 1.5155-11.24 4.5464s-3.585 7.3045-3.585 12.927v46.979c0 5.623 1.185 9.927 3.585 12.927 2.4 3.001 6.076 4.547 11.24 4.547 5.165 0 8.871-1.516 11.256-4.517h-.015z" fill="white"/>
	<path d="m62.733 138.66s15.995 36.704 70.359 75.015c54.364 38.311 131.92 51.056 163.11 54.254" stroke="white" stroke-dasharray="2.06 4.12" stroke-miterlimit="10" stroke-width="1.03"/>
	<path d="m369.79 9.1668s60.335 13.091 146.22 116.39c56.375 67.899 64.987 103.44 64.987 103.44" stroke="white" stroke-dasharray="2.06 4.12" stroke-miterlimit="10" stroke-width="1.03"/>
	<path d="m594.94 230.93-12.957-8.138-2.674 6.668 12.441 7.805" fill="white"/>
	<path d="m595.74 230.96-12.623-7.82-2.598 6.41 12.107 7.502" stroke="#272C3E" stroke-miterlimit="10" stroke-width=".6"/>
	<path d="m654.9 266.3-60.212-37.28-3.827 7.486 52.814 32.598" fill="#272C3E"/>
	<path d="m654.9 266.3-60.212-37.28-3.827 7.486 52.814 32.598" stroke="#272C3E" stroke-miterlimit="10" stroke-width="1.21"/>
	<path d="m726.89 361.06h14.658l9.828-3.334v3.334h6.516v-35.583h-10.374l3.053 24.248-23.681 11.335z" fill="#272C3E"/>
	<path d="m726.89 361.06h14.658l9.828-3.334v3.334h6.516v-35.583h-10.374l3.053 24.248-23.681 11.335z" stroke="#272C3E" stroke-miterlimit="10" stroke-width="2.57"/>
	<path d="m688.28 326.1v-66.15" stroke="#272C3E" stroke-miterlimit="10" stroke-width="1.28"/>
	<path d="m770.24 293.3-9.251 6.683-3.767-4.971 9.008-6.501" fill="white"/>
	<path d="m770.24 293.3-9.251 6.683-3.767-4.971 9.008-6.501" stroke="#272C3E" stroke-miterlimit="10" stroke-width=".6"/>
	<path d="m793.14 267.37h-32.461v-7.82h56.521l-46.511 34.068-4.724-6.274 27.175-19.974z" fill="#272C3E"/>
	<path d="m793.14 267.37h-32.461v-7.82h56.521l-46.511 34.068-4.724-6.274 27.175-19.974z" stroke="#272C3E" stroke-miterlimit="10" stroke-width="1.21"/>
	<path d="m644.47 255.6-1.808 66.529 116.78 3.076 1.807-66.528" fill="white"/>
	<path d="m644.47 255.6-1.808 66.529 116.78 3.076 1.807-66.528" stroke="#272C3E" stroke-miterlimit="10" stroke-width="1.21"/>
	<path d="m643.4 276.89-2.203 49.314 118.71-.485 1.276-45.722-28.694-8.926-44.612 26.218-24.865-28.567-19.61 8.168z" fill="#272C3E"/>
	<path d="m643.95 258.69h116.43v-125.44h-87.31l-29.118 125.44z" fill="white"/>
	<path d="m643.95 258.69h116.43v-125.44h-87.31l-29.118 125.44z" stroke="#272C3E" stroke-miterlimit="10" stroke-width="1.21"/>
	<path d="m709.3 132.82-20.734 90.337h40.951v36.038" stroke="#272C3E" stroke-miterlimit="10" stroke-width=".6"/>
	<path d="m748.72 233.96-18.896 4.774m-70.1-68.423h12.485-12.485zm104.14 5.486-28.86 10.76 28.86-10.76zm-72.911-.667 25.823 7.82-25.823-7.82zm-9.068-11.169c1.748.045 3.444.603 4.875 1.605 1.431 1.001 2.535 2.402 3.172 4.026s.78 3.4.411 5.105c-.37 1.705-1.235 3.263-2.488 4.48-1.253 1.216-2.837 2.037-4.555 2.359-1.719.323-3.494.132-5.104-.547-1.61-.68-2.984-1.818-3.949-3.273-.965-1.454-1.478-3.16-1.476-4.905.016-1.178.265-2.341.731-3.424.467-1.082 1.143-2.062 1.989-2.884s1.847-1.47 2.944-1.906 2.269-.652 3.45-.636zm44.05 13.094c1.744.047 3.434.607 4.861 1.608 1.426 1.001 2.525 2.399 3.16 4.02.634 1.621.775 3.392.406 5.092-.369 1.701-1.233 3.255-2.482 4.469-1.25 1.213-2.831 2.033-4.545 2.355-1.713.322-3.484.133-5.091-.543-1.607-.677-2.978-1.81-3.943-3.26-.964-1.45-1.479-3.151-1.479-4.891.015-1.181.265-2.347.733-3.431.469-1.085 1.147-2.066 1.997-2.888.849-.823 1.853-1.47 2.954-1.904 1.1-.434 2.276-.647 3.46-.627h-.031z" stroke="#272C3E" stroke-miterlimit="10" stroke-width="1.21"/>
	<path d="m749.34 151.46-35.043 12.745 2.385 5.471 33.736-15.73-1.078-2.486z" fill="#272C3E"/>
	<path d="m667.65 151.49 35.089 10.472 1.458-5.789-35.893-7.305-.654 2.622z" fill="#272C3E"/>
	<path d="m642.9 277.59 45.827-19.247 72.789 21.899" stroke="#272C3E" stroke-miterlimit="10" stroke-width="1.28"/>
	<path d="m694.17 261.54c-.016 1.091-.356 2.153-.978 3.05-.622.898-1.497 1.59-2.515 1.99-1.017.4-2.131.489-3.2.256-1.068-.233-2.043-.778-2.8-1.566-.757-.787-1.262-1.782-1.451-2.856-.19-1.075-.054-2.182.389-3.179.442-.998 1.173-1.842 2.097-2.424.925-.583 2.002-.878 3.096-.848 1.451.032 2.831.637 3.836 1.682 1.006 1.046 1.554 2.446 1.526 3.895z" fill="white"/>
	<path d="m694 261.54c-.016 1.067-.349 2.105-.958 2.983-.608.877-1.465 1.555-2.46 1.945-.995.391-2.085.478-3.13.249-1.044-.229-1.997-.762-2.737-1.533-.74-.77-1.234-1.743-1.419-2.794-.184-1.051-.051-2.133.382-3.109.434-.975 1.148-1.8 2.053-2.37.905-.569 1.959-.857 3.028-.827 1.42.032 2.769.624 3.751 1.647s1.518 2.393 1.49 3.809z" stroke="#272C3E" stroke-miterlimit="10" stroke-width=".62"/>
	<path d="m685.42 265.56-17.255 4.273.486-17.928 16.997 5.168" fill="white"/>
	<path d="m685.36 265.4-16.952 4.122.471-17.322 16.708 5.002" stroke="#272C3E" stroke-miterlimit="10" stroke-width="1.23"/>
	<path d="m692.65 257.25 17.27-4.274-.501 17.944-16.997-5.183" fill="white"/>
	<path d="m692.71 257.42 16.966-4.137-.486 17.321-16.708-5.001" stroke="#272C3E" stroke-miterlimit="10" stroke-width="1.23"/>
	<path d="m694.17 261.54c-.016 1.091-.356 2.153-.978 3.05-.622.898-1.497 1.59-2.515 1.99-1.017.4-2.131.489-3.2.256-1.068-.233-2.043-.778-2.8-1.566-.757-.787-1.262-1.782-1.451-2.856-.19-1.075-.054-2.182.389-3.179.442-.998 1.173-1.842 2.097-2.424.925-.583 2.002-.878 3.096-.848 1.451.032 2.831.637 3.836 1.682 1.006 1.046 1.554 2.446 1.526 3.895z" fill="white"/>
	<path d="m693.9 261.54c-.012 1.046-.337 2.066-.932 2.928s-1.434 1.528-2.409 1.913c-.976.385-2.045.472-3.07.249s-1.96-.745-2.687-1.5-1.212-1.709-1.394-2.74c-.181-1.031-.051-2.093.374-3.05s1.126-1.766 2.014-2.324c.887-.559 1.921-.841 2.97-.811.688.014 1.367.163 1.998.439.63.275 1.2.672 1.677 1.167.477.496.851 1.08 1.101 1.72.251.639.372 1.322.358 2.009z" stroke="#272C3E" stroke-miterlimit="10" stroke-width="1.23"/>
	<path d="m674.21 259.71-2.407.197.197 2.401 2.408-.197z" style="fill:#272c3e"/>
	<path d="m672.9 254.99-2.407.197.197 2.401 2.407-.197z" style="fill:#272c3e"/>
	<path d="m685.45 265.5-16.952 4.122.471-17.322 16.709 5.001" stroke="#272C3E" stroke-miterlimit="10" stroke-width="1.23"/>
	<path d="m692.8 257.51 16.966-4.138-.486 17.322-16.708-5.001" stroke="#272C3E" stroke-miterlimit="10" stroke-width="1.23"/>
	<path d="m623.51 360.86h14.658l9.828-3.334v3.334h6.516v-35.583h-10.374l3.038 24.248-23.666 11.335z" fill="#272C3E"/>
	<path d="m623.51 360.86h14.658l9.828-3.334v3.334h6.516v-35.583h-10.374l3.038 24.248-23.666 11.335z" stroke="#272C3E" stroke-miterlimit="10" stroke-width="2.57"/>
	<path d="m256.51 222.88c21.751-4.198 46.252-49.45 75.948-38.735-23.27 1.985-59.24 61.194-3.645 33.931 2.476-1.303 2.202-.834.273.197-38.627 20.125-38.825-6.062-20.719-20.944 6.279-5.805 13.617-10.353 21.615-13.396-29.392-7.063-51.083 34.689-73.047 39.22-2.947.682-7.595.954-7.078-2.273.471-1.304 1.777-.47.82-.137-.638.288-1.671 3.546 5.833 2.137z" fill="white"/>
	<path d="m338.91 213.47c1.641 1.304-2.476 2.955-5.787 3.85-5.848 6.243 14.931 1.788 17.559.136.76-.273.334 0 .198.212-1.99 1.637-25.397 6.789-19.884-1.379 2.886-3.501 6.213-4.122 7.914-2.819zm-.349.137c-1.519-.819-2.886.621-5.089 3.303 4.603-1.712 6.122-2.621 5.089-3.227v-.076z" fill="white"/>
	<path d="m359.01 214.09c-.759-.485-3.782-2.136-9.296 5.214-.608.894-3.038.621-2.339-.197 1.169-1.379 3.797-3.168 3.721-5.638l.957-.076c0 .152-.137.697-.137 1.107 3.722-2.546 8.674-.955 8.4.075 1.109-.485 5.575-2.409 6.957-.136 1.246 2.046-6.076 5.622-2.749 6.653 2.4.758 6.197-.819 13.974-3.713.41-.136.957 0 .41.212-8.323 2.743-11.285 4.319-13.974 3.849-2.203-.409-2.962-1.106-2.962-1.924 0-2.001 4.678-4.547 4.208-5.289-.897-1.167-4.694.136-5.514 1.091-.821.955-1.656 2.061-3.859 4.334-.759.485-2.202.349-2.126-.212 1.23-1.925 5.164-4.804 4.329-5.35z" fill="white"/>
	<line x1="1134.4" x2="583.39" y1="361.19" y2="363.21" style="stroke:#272c3e"/>
	<path d="m673.03 264.64-2.407.197.197 2.401 2.408-.197z" style="fill:#272c3e"/>
	<path d="m678.69 262.91-2.407.197.197 2.401 2.408-.197z" style="fill:#272c3e"/>
	<path d="m680.05 258.48-2.407.197.197 2.401 2.408-.197z" style="fill:#272c3e"/>
	<path d="m691.78 261.43-1.9518.15031.15975 1.8319 1.9526-.15031z" style="fill:#272c3e"/>
	<path d="m698.76 258.48-2.407.197.197 2.401 2.408-.197z" style="fill:#272c3e"/>
	<path d="m704.68 256.63-2.407.197.197 2.401 2.408-.197z" style="fill:#272c3e"/>
	<path d="m702.83 260.94-2.407.197.197 2.401 2.408-.197z" style="fill:#272c3e"/>
	<path d="m706.03 264.39-2.407.197.197 2.401 2.408-.197z" style="fill:#272c3e"/>
	<path d="m708.99 260.08-2.407.197.197 2.401 2.408-.197z" style="fill:#272c3e"/>
	<path d="m688.73 258.34-1.9518.15031.15975 1.8319 1.9526-.15031z" style="fill:#272c3e"/>
	<path d="m686.98 261.99-1.9518.15031.15975 1.8319 1.9526-.15031z" style="fill:#272c3e"/>
	<path d="m697.16 263.28-2.407.197.197 2.401 2.408-.197z" style="fill:#272c3e"/>
</svg>
