<svg width="1135" height="370" viewBox="0 0 1135 370" fill="none" xmlns="http://www.w3.org/2000/svg">
<path d="M1.13928 69.3476C1.88358 71.0297 2.65825 72.7422 3.37217 74.4244C5.92403 80.1427 8.48603 85.8459 11.0581 91.534C12.6834 95.1256 14.3391 98.7021 15.9492 102.294C18.2074 107.285 20.4504 112.276 22.6783 117.267L27.2352 127.42C29.5288 132.497 31.7921 137.574 34.0857 142.575C34.2528 142.954 34.4655 143.333 34.7237 143.817L39.4932 137.483C42.7438 133.043 45.9792 128.602 49.245 124.192C49.7362 123.309 50.3671 122.511 51.1134 121.828C51.1256 121.703 51.1563 121.58 51.2045 121.464L57.569 112.781C57.569 112.356 57.2196 112.205 56.931 111.978L47.0121 104.309C42.0755 100.475 37.1692 96.6259 32.2326 92.807L19.6403 83.108L2.2937 69.7113L2.11142 69.5294C2.04143 69.4839 1.98484 69.4206 1.94746 69.346C1.91009 69.2714 1.89329 69.1883 1.89877 69.1051H1.51902C1.48639 69.1781 1.43303 69.24 1.36555 69.2831C1.29806 69.3262 1.2194 69.3486 1.13928 69.3476V69.3476Z" fill="white" stroke="#272C3E" stroke-miterlimit="10"/>
<path d="M72.1511 107.507L86.4598 102.021L98.9457 97.2931C97.7761 96.9142 96.8495 96.5808 95.9078 96.308L83.9079 92.8225L70.0549 88.8065L58.5411 85.3815L44.5818 81.3201C40.4047 80.0926 36.2275 78.8347 32.0351 77.6224L12.9265 72.0606C9.32657 71.0149 5.7418 69.939 2.15704 68.8781C2.00514 68.8781 1.83805 68.8781 1.68616 68.8024L1.914 69.1509L13.9442 75.6523L22.2378 80.1986L38.43 89.0338L48.9565 94.7774L64.9968 103.552L72.1511 107.507Z" fill="white" stroke="#272C3E" stroke-miterlimit="10"/>
<path d="M72.1514 108.507L64.997 104.552L48.9567 95.777L38.4303 90.0334L22.2229 81.168L13.9293 76.6216L1.89909 70.1354C1.8936 70.2186 1.91041 70.3017 1.94778 70.3763C1.98516 70.4509 2.04174 70.5142 2.11174 70.5597L2.29402 70.7416L19.5799 84.108L32.1721 93.8069C37.1088 97.6259 42.015 101.475 46.9517 105.309L56.8706 112.978C57.1592 113.205 57.5085 113.356 57.5085 113.781C57.706 113.902 57.7212 114.099 57.7516 114.296C58.1921 117.145 58.6629 119.994 59.1034 122.843C59.6401 126.117 60.1465 129.385 60.6224 132.648C62.354 129.451 63.7363 126.071 65.3616 122.813C65.8932 121.752 66.3185 120.631 66.8806 119.555C68.6324 115.867 70.3894 112.184 72.1514 108.507Z" fill="white" stroke="#272C3E" stroke-miterlimit="10"/>
<path d="M458.303 136.922C458.303 172.838 444.002 207.283 418.547 232.68C393.092 258.076 358.567 272.344 322.568 272.344C142.524 265.206 142.57 8.60763 322.568 1.51526C358.567 1.51526 393.092 15.7829 418.547 41.1794C444.002 66.5759 458.303 101.021 458.303 136.937V136.922Z" stroke="white" stroke-miterlimit="10" stroke-dasharray="1.99 3.98"/>
<path d="M246.149 152.486L286.249 99.4443C288.24 96.8814 289.865 94.056 291.08 91.0486C292.149 88.4864 292.726 85.7463 292.781 82.9712V82.8197C292.884 81.1548 292.621 79.4876 292.01 77.935C291.398 76.3825 290.453 74.9824 289.242 73.833C286.398 71.55 282.799 70.4144 279.156 70.6505C277.288 70.5647 275.423 70.8621 273.675 71.5242C271.927 72.1863 270.334 73.199 268.994 74.4998C266.195 77.5116 264.536 81.4019 264.3 85.502V85.502H244.706C245.241 79.2252 247.149 73.1417 250.295 67.6802C253.11 62.9076 257.188 59.0011 262.083 56.39C267.306 53.7099 273.117 52.3713 278.989 52.4952C285.215 52.3397 291.398 53.5611 297.095 56.0717C301.881 58.2478 305.877 61.8472 308.533 66.3769C311.291 71.3605 312.656 76.9928 312.482 82.6833V82.6833C312.478 87.5697 311.593 92.4154 309.869 96.9893C308.079 101.816 305.597 106.359 302.502 110.477L271.333 151.137H313.12V169.322H246.149V152.486Z" fill="white"/>
<path d="M340.918 161.867C335.145 156.088 332.259 148.005 332.259 137.619V85.1084C332.259 74.7123 335.156 66.6299 340.948 60.861C346.74 55.0921 355.14 52.2178 366.148 52.238C377.206 52.238 385.616 55.1022 391.378 60.8307C397.14 66.5592 400.026 74.6416 400.036 85.0781V137.665C400.036 148.061 397.14 156.143 391.347 161.912C385.555 167.681 377.155 170.56 366.148 170.55C355.089 170.55 346.679 167.656 340.918 161.867ZM377.373 147.833C379.773 144.803 380.958 140.529 380.958 134.907V87.8969C380.958 82.2745 379.773 77.9554 377.373 74.97C374.973 71.9845 371.297 70.4236 366.132 70.4236C360.968 70.4236 357.277 71.9391 354.892 74.97C352.507 78.0009 351.307 82.2745 351.307 87.8969V134.876C351.307 140.499 352.492 144.803 354.892 147.803C357.292 150.804 360.968 152.35 366.132 152.35C371.297 152.35 375.003 150.834 377.388 147.833H377.373Z" fill="white"/>
<path d="M62.733 138.665C62.733 138.665 78.7278 175.369 133.092 213.68C187.456 251.991 265.014 264.736 296.198 267.934" stroke="white" stroke-width="1.03" stroke-miterlimit="10" stroke-dasharray="2.06 4.12"/>
<path d="M369.794 9.16678C369.794 9.16678 430.129 22.2573 516.013 125.557C572.388 193.456 581 229 581 229" stroke="white" stroke-width="1.03" stroke-miterlimit="10" stroke-dasharray="2.06 4.12"/>
<path d="M594.935 230.927L581.978 222.789L579.304 229.457L591.745 237.262" fill="white"/>
<path d="M595.74 230.958L583.117 223.138L580.519 229.548L592.626 237.05" stroke="#272C3E" stroke-width="0.6" stroke-miterlimit="10"/>
<path d="M654.903 266.298L594.691 229.018L590.864 236.504L643.678 269.102" fill="#272C3E"/>
<path d="M654.903 266.298L594.691 229.018L590.864 236.504L643.678 269.102" stroke="#272C3E" stroke-width="1.21" stroke-miterlimit="10"/>
<path d="M726.887 361.06H741.545L751.373 357.726V361.06H757.889V325.477H747.515L750.568 349.725L726.887 361.06Z" fill="#272C3E"/>
<path d="M726.887 361.06H741.545L751.373 357.726V361.06H757.889V325.477H747.515L750.568 349.725L726.887 361.06Z" stroke="#272C3E" stroke-width="2.57" stroke-miterlimit="10"/>
<path d="M688.275 326.098V259.948" stroke="#272C3E" stroke-width="1.28" stroke-miterlimit="10"/>
<path d="M770.239 293.304L760.988 299.987L757.221 295.016L766.229 288.515" fill="white"/>
<path d="M770.239 293.304L760.988 299.987L757.221 295.016L766.229 288.515" stroke="#272C3E" stroke-width="0.6" stroke-miterlimit="10"/>
<path d="M793.145 267.374H760.684V259.554H817.205L770.694 293.622L765.97 287.348L793.145 267.374Z" fill="#272C3E"/>
<path d="M793.145 267.374H760.684V259.554H817.205L770.694 293.622L765.97 287.348L793.145 267.374Z" stroke="#272C3E" stroke-width="1.21" stroke-miterlimit="10"/>
<path d="M644.468 255.599L642.66 322.128L759.439 325.204L761.246 258.676" fill="white"/>
<path d="M644.468 255.599L642.66 322.128L759.439 325.204L761.246 258.676" stroke="#272C3E" stroke-width="1.21" stroke-miterlimit="10"/>
<path d="M643.405 276.891L641.202 326.205L759.91 325.72L761.186 279.998L732.492 271.072L687.88 297.29L663.015 268.723L643.405 276.891Z" fill="#272C3E"/>
<path d="M643.952 258.691H760.38V133.256H673.07L643.952 258.691Z" fill="white"/>
<path d="M643.952 258.691H760.38V133.256H673.07L643.952 258.691Z" stroke="#272C3E" stroke-width="1.21" stroke-miterlimit="10"/>
<path d="M709.298 132.816L688.564 223.153H729.515V259.191" stroke="#272C3E" stroke-width="0.6" stroke-miterlimit="10"/>
<path d="M748.715 233.958L729.819 238.732M659.719 170.309H672.204H659.719ZM763.859 175.795L734.999 186.555L763.859 175.795ZM690.948 175.128L716.771 182.948L690.948 175.128ZM681.88 163.959C683.628 164.004 685.324 164.562 686.755 165.564C688.186 166.565 689.29 167.966 689.927 169.59C690.564 171.214 690.707 172.99 690.338 174.695C689.968 176.4 689.103 177.958 687.85 179.175C686.597 180.391 685.013 181.212 683.295 181.534C681.576 181.857 679.801 181.666 678.191 180.987C676.581 180.307 675.207 179.169 674.242 177.714C673.277 176.26 672.764 174.554 672.766 172.809C672.782 171.631 673.031 170.468 673.497 169.385C673.964 168.303 674.64 167.323 675.486 166.501C676.332 165.679 677.333 165.031 678.43 164.595C679.527 164.159 680.699 163.943 681.88 163.959V163.959ZM725.93 177.053C727.674 177.1 729.364 177.66 730.791 178.661C732.217 179.662 733.316 181.06 733.951 182.681C734.585 184.302 734.726 186.073 734.357 187.773C733.988 189.474 733.124 191.028 731.875 192.242C730.625 193.455 729.044 194.275 727.33 194.597C725.617 194.919 723.846 194.73 722.239 194.054C720.632 193.377 719.261 192.244 718.296 190.794C717.332 189.344 716.817 187.643 716.817 185.903C716.832 184.722 717.082 183.556 717.55 182.472C718.019 181.387 718.697 180.406 719.547 179.584C720.396 178.761 721.4 178.114 722.501 177.68C723.601 177.246 724.777 177.033 725.961 177.053H725.93Z" stroke="#272C3E" stroke-width="1.21" stroke-miterlimit="10"/>
<path d="M749.338 151.456L714.295 164.201L716.68 169.672L750.416 153.942L749.338 151.456Z" fill="#272C3E"/>
<path d="M667.647 151.487L702.736 161.959L704.194 156.17L668.301 148.865L667.647 151.487Z" fill="#272C3E"/>
<path d="M642.904 277.589L688.731 258.342L761.52 280.241" stroke="#272C3E" stroke-width="1.28" stroke-miterlimit="10"/>
<path d="M694.169 261.54C694.153 262.631 693.813 263.693 693.191 264.59C692.569 265.488 691.694 266.18 690.676 266.58C689.659 266.98 688.545 267.069 687.476 266.836C686.408 266.603 685.433 266.058 684.676 265.27C683.919 264.483 683.414 263.488 683.225 262.414C683.035 261.339 683.171 260.232 683.614 259.235C684.056 258.237 684.787 257.393 685.711 256.811C686.636 256.228 687.713 255.933 688.807 255.963C690.258 255.995 691.638 256.6 692.643 257.645C693.649 258.691 694.197 260.091 694.169 261.54Z" fill="white"/>
<path d="M694.002 261.54C693.986 262.607 693.653 263.645 693.044 264.523C692.436 265.4 691.579 266.078 690.584 266.468C689.589 266.859 688.499 266.946 687.454 266.717C686.41 266.488 685.457 265.955 684.717 265.184C683.977 264.414 683.483 263.441 683.298 262.39C683.114 261.339 683.247 260.257 683.68 259.281C684.114 258.306 684.828 257.481 685.733 256.911C686.638 256.342 687.692 256.054 688.761 256.084C690.181 256.116 691.53 256.708 692.512 257.731C693.494 258.754 694.03 260.124 694.002 261.54V261.54Z" stroke="#272C3E" stroke-width="0.62" stroke-miterlimit="10"/>
<path d="M685.419 265.556L668.164 269.829L668.65 251.901L685.647 257.069" fill="white"/>
<path d="M685.359 265.404L668.407 269.526L668.878 252.204L685.586 257.206" stroke="#272C3E" stroke-width="1.23" stroke-miterlimit="10"/>
<path d="M692.65 257.251L709.92 252.977L709.419 270.921L692.422 265.738" fill="white"/>
<path d="M692.711 257.418L709.677 253.281L709.191 270.602L692.483 265.601" stroke="#272C3E" stroke-width="1.23" stroke-miterlimit="10"/>
<path d="M694.169 261.54C694.153 262.631 693.813 263.693 693.191 264.59C692.569 265.488 691.694 266.18 690.676 266.58C689.659 266.98 688.545 267.069 687.476 266.836C686.408 266.603 685.433 266.058 684.676 265.27C683.919 264.483 683.414 263.488 683.225 262.414C683.035 261.339 683.171 260.232 683.614 259.235C684.056 258.237 684.787 257.393 685.711 256.811C686.636 256.228 687.713 255.933 688.807 255.963C690.258 255.995 691.638 256.6 692.643 257.645C693.649 258.691 694.197 260.091 694.169 261.54Z" fill="white"/>
<path d="M693.895 261.54C693.883 262.586 693.558 263.606 692.963 264.468C692.368 265.33 691.529 265.996 690.554 266.381C689.578 266.766 688.509 266.853 687.484 266.63C686.459 266.407 685.524 265.885 684.797 265.13C684.07 264.375 683.585 263.421 683.403 262.39C683.222 261.359 683.352 260.297 683.777 259.34C684.202 258.383 684.903 257.574 685.791 257.016C686.678 256.457 687.712 256.175 688.761 256.205C689.449 256.219 690.128 256.368 690.759 256.644C691.389 256.919 691.959 257.316 692.436 257.811C692.913 258.307 693.287 258.891 693.537 259.531C693.788 260.17 693.909 260.853 693.895 261.54V261.54Z" stroke="#272C3E" stroke-width="1.23" stroke-miterlimit="10"/>
<path d="M690.607 252.907L688.2 253.104L688.397 255.505L690.805 255.308L690.607 252.907Z" fill="#272C3E"/>
<path d="M701.714 252.003L696.9 252.397L697.097 254.798L701.912 254.404L701.714 252.003Z" fill="#272C3E"/>
<path d="M692.096 252.786L689.689 252.983L689.886 255.384L692.293 255.187L692.096 252.786Z" fill="#272C3E"/>
<path d="M685.45 265.495L668.498 269.617L668.969 252.295L685.678 257.296" stroke="#272C3E" stroke-width="1.23" stroke-miterlimit="10"/>
<path d="M692.802 257.509L709.768 253.371L709.282 270.693L692.574 265.692" stroke="#272C3E" stroke-width="1.23" stroke-miterlimit="10"/>
<path d="M623.506 360.863H638.164L647.992 357.529V360.863H654.508V325.28H644.134L647.172 349.528L623.506 360.863Z" fill="#272C3E"/>
<path d="M623.506 360.863H638.164L647.992 357.529V360.863H654.508V325.28H644.134L647.172 349.528L623.506 360.863Z" stroke="#272C3E" stroke-width="2.57" stroke-miterlimit="10"/>
<path d="M256.509 222.879C278.26 218.681 302.761 173.429 332.457 184.144C309.187 186.129 273.217 245.338 328.812 218.075C331.288 216.772 331.014 217.241 329.085 218.272C290.458 238.397 290.26 212.21 308.366 197.328C314.645 191.523 321.983 186.975 329.981 183.932C300.589 176.869 278.898 218.621 256.934 223.152C253.987 223.834 249.339 224.106 249.856 220.879C250.327 219.575 251.633 220.409 250.676 220.742C250.038 221.03 249.005 224.288 256.509 222.879Z" fill="white"/>
<path d="M338.912 213.468C340.553 214.772 336.436 216.423 333.125 217.318C327.277 223.561 348.056 219.106 350.684 217.454C351.444 217.181 351.018 217.454 350.882 217.666C348.892 219.303 325.485 224.455 330.998 216.287C333.884 212.786 337.211 212.165 338.912 213.468ZM338.563 213.605C337.044 212.786 335.677 214.226 333.474 216.908C338.077 215.196 339.596 214.287 338.563 213.681V213.605Z" fill="white"/>
<path d="M359.008 214.089C358.249 213.604 355.226 211.953 349.712 219.303C349.104 220.197 346.674 219.924 347.373 219.106C348.542 217.727 351.17 215.938 351.094 213.468L352.051 213.392C352.051 213.544 351.914 214.089 351.914 214.499C355.636 211.953 360.588 213.544 360.314 214.574C361.423 214.089 365.889 212.165 367.271 214.438C368.517 216.484 361.195 220.06 364.522 221.091C366.922 221.849 370.719 220.272 378.496 217.378C378.906 217.242 379.453 217.378 378.906 217.59C370.583 220.333 367.621 221.909 364.932 221.439C362.729 221.03 361.97 220.333 361.97 219.515C361.97 217.514 366.648 214.968 366.178 214.226C365.281 213.059 361.484 214.362 360.664 215.317C359.843 216.272 359.008 217.378 356.805 219.651C356.046 220.136 354.603 220 354.679 219.439C355.909 217.514 359.843 214.635 359.008 214.089Z" fill="white"/>
<line y1="-0.5" x2="551.004" y2="-0.5" transform="matrix(-0.999993 0.00367095 -0.003589 -0.999994 1135 366.772)" stroke="#272C3E"/>
</svg>
